<svg width="14" height="20" viewBox="0 0 14 20" fill="none" xmlns="http://www.w3.org/2000/svg">
<path d="M10.3937 2.20834H12.25C12.4489 2.20834 12.6397 2.30492 12.7803 2.47683C12.921 2.64874 13 2.8819 13 3.12501V18.25C13 18.4931 12.921 18.7263 12.7803 18.8982C12.6397 19.0701 12.4489 19.1667 12.25 19.1667H1.75C1.55109 19.1667 1.36032 19.0701 1.21967 18.8982C1.07902 18.7263 1 18.4931 1 18.25V3.12501C1 2.8819 1.07902 2.64874 1.21967 2.47683C1.36032 2.30492 1.55109 2.20834 1.75 2.20834H4.375V3.58334H9.625V2.20834H10.3937Z" stroke="white" stroke-linejoin="round"/>
<path d="M8.125 7.70834L5.125 11.3755H8.8765L5.875 15.0421M4.375 0.833344H9.625V3.58334H4.375V0.833344Z" stroke="black" stroke-linecap="round" stroke-linejoin="round"/>
</svg>
