<svg width="18" height="19" viewBox="0 0 18 19" fill="none" xmlns="http://www.w3.org/2000/svg">
<path d="M9.09 15.55L9 15.65L8.901 15.55C4.626 11.24 1.8 8.39 1.8 5.5C1.8 3.5 3.15 2 4.95 2C6.336 2 7.686 3 8.163 4.36H9.837C10.314 3 11.664 2 13.05 2C14.85 2 16.2 3.5 16.2 5.5C16.2 8.39 13.374 11.24 9.09 15.55ZM13.05 0C11.484 0 9.981 0.81 9 2.08C8.019 0.81 6.516 0 4.95 0C2.178 0 0 2.41 0 5.5C0 9.27 3.06 12.36 7.695 17.03L9 18.35L10.305 17.03C14.94 12.36 18 9.27 18 5.5C18 2.41 15.822 0 13.05 0Z" fill="black"/>
</svg>
